<svg version="1.1" id="Layer_1" xmlns="http://www.w3.org/2000/svg" xmlns:xlink="http://www.w3.org/1999/xlink" x="0px" y="0px"
	 width="100%" viewBox="0 0 750 750" enable-background="new 0 0 750 750" xml:space="preserve">
<path fill="#000000" opacity="1.000000" stroke="none" 
	d="
M475.000000,751.000000 
	C316.666656,751.000000 158.833328,751.000000 1.000000,751.000000 
	C1.000000,501.000000 1.000000,251.000000 1.000000,1.000000 
	C251.000000,1.000000 501.000000,1.000000 751.000000,1.000000 
	C751.000000,251.000000 751.000000,501.000000 751.000000,751.000000 
	C659.166687,751.000000 567.333313,751.000000 475.000000,751.000000 
M409.823730,232.306641 
	C397.681824,223.140793 383.685242,221.197830 369.056335,222.054672 
	C362.859894,222.417603 360.502136,224.763702 359.968658,229.499527 
	C359.227753,236.076645 363.280945,240.407501 371.223206,238.908249 
	C382.098694,236.855301 391.678162,240.016251 401.228485,245.736832 
	C402.763214,246.934906 404.513580,247.938477 405.797913,249.362396 
	C414.659393,259.187225 418.876038,270.848572 419.025421,284.906799 
	C419.474182,299.687378 414.401215,312.963440 405.774567,324.352020 
	C397.359711,335.461029 387.221863,345.263336 377.871429,355.667175 
	C376.680695,356.992065 375.401031,358.352234 374.642731,359.927246 
	C372.903595,363.539124 374.584717,367.700348 378.137207,367.810486 
	C381.227417,367.906342 385.300751,367.682526 387.312225,365.831482 
	C396.804779,357.096191 406.509460,348.391937 414.707642,338.491730 
	C431.130157,318.659821 437.423218,295.647858 432.969330,269.221161 
	C432.647827,268.145020 432.324219,267.069550 432.005096,265.992676 
	C428.079102,252.744217 422.069550,240.876678 409.823730,232.306641 
M449.993896,263.888489 
	C450.664886,268.717499 451.621155,273.527130 451.950287,278.379333 
	C452.755463,290.250824 451.336578,301.870148 447.445923,313.179810 
	C446.235413,316.698608 448.830353,321.095276 452.612946,321.761536 
	C456.168427,322.387848 459.227417,320.985443 459.976135,317.110382 
	C461.787048,307.737366 463.848206,298.366516 464.816040,288.893402 
	C465.444183,282.745239 464.714722,276.365967 463.877502,270.187256 
	C463.087280,264.355286 461.360596,258.650177 460.012878,252.110062 
	C455.917938,237.280289 447.573456,225.037521 436.802673,214.330673 
	C433.718933,211.265228 428.424316,210.998352 426.094299,213.398132 
	C422.941101,216.645676 423.344604,220.631439 427.114288,224.632233 
	C430.159973,227.864624 433.880707,230.766449 435.948883,234.553818 
	C441.008759,243.819687 445.285431,253.513260 449.993896,263.888489 
M373.145050,191.017426 
	C369.235535,191.353333 365.261749,191.351593 361.427094,192.081009 
	C339.721680,196.209778 321.266846,205.927826 307.641479,223.826355 
	C304.534058,227.908310 304.085205,232.945602 306.883575,235.344345 
	C309.842529,237.880753 314.902924,236.667236 318.172272,232.288803 
	C330.647675,215.581299 347.775208,207.413422 368.932922,204.969528 
	C381.420349,204.629700 393.730774,205.011826 405.383575,210.598755 
	C408.815094,212.244003 412.695557,211.330750 414.741211,207.486603 
	C416.399719,204.369904 414.382812,199.882355 410.554535,198.254196 
	C398.892853,193.294418 386.666718,191.067719 373.145050,191.017426 
M380.289368,280.809479 
	C380.860168,282.793457 381.680573,284.743530 381.955597,286.767670 
	C382.829254,293.197906 380.346375,298.901184 377.889862,304.631897 
	C376.424347,308.050781 375.513123,312.148651 379.175293,314.349548 
	C381.380920,315.675079 385.091675,315.677185 387.664642,314.845825 
	C389.816437,314.150543 391.915131,311.672974 392.955078,309.473083 
	C395.557526,303.967773 398.661865,298.336731 399.529724,292.455780 
	C400.992218,282.545319 400.981842,272.373871 391.822662,264.307159 
	C387.396790,259.909149 381.622162,258.313599 375.824982,258.139038 
	C363.688904,257.773682 353.644623,263.557617 349.887695,276.114014 
	C346.562286,287.228027 341.597107,297.602600 334.082611,306.603882 
	C333.360748,307.468536 332.866180,308.528015 332.118378,309.365051 
	C328.499603,313.415558 327.903839,318.394714 330.759491,321.251129 
	C333.502014,323.994385 340.513580,323.632172 343.941681,320.592560 
	C354.905090,310.871613 361.398926,298.403900 365.985687,284.762085 
	C368.541840,277.159576 373.747742,275.424744 380.289368,280.809479 
M399.000000,447.409424 
	C399.000000,444.984619 399.000000,442.559814 399.000000,440.319824 
	C384.287537,440.319824 370.217072,440.319824 356.319244,440.319824 
	C356.319244,459.377472 356.319244,478.113953 356.319244,497.000000 
	C363.622803,497.000000 370.607849,497.000000 377.592865,497.000000 
	C384.686615,497.000000 391.780334,497.000000 398.678009,497.000000 
	C398.678009,492.950958 398.678009,489.543579 398.678009,485.758179 
	C388.947815,485.758179 379.535583,485.758179 370.325500,485.758179 
	C370.325500,481.613892 370.325500,477.873444 370.325500,473.750092 
	C379.394287,473.750092 388.141571,473.750092 396.670715,473.750092 
	C396.670715,469.940552 396.670715,466.533264 396.670715,462.744080 
	C387.599182,462.744080 378.853149,462.744080 370.332916,462.744080 
	C370.332916,458.599609 370.332916,454.859039 370.332916,450.999908 
	C378.986450,450.999908 387.307617,450.982239 395.628601,451.013336 
	C397.516388,451.020386 399.485352,451.301239 399.000000,447.409424 
M292.250305,487.778992 
	C289.270355,485.874786 286.290405,483.970551 283.310455,482.066345 
	C283.958282,481.430878 284.606110,480.795441 285.253937,480.160004 
	C280.949554,480.160004 276.645203,480.160004 271.932068,480.160004 
	C272.360016,485.906464 274.058167,490.763153 278.883911,493.963654 
	C287.418182,499.623779 296.664276,499.696533 306.155457,497.002228 
	C311.225861,495.562866 315.170441,492.593811 316.953735,487.535736 
	C319.978821,478.955505 317.613190,468.353119 305.903625,464.926422 
	C301.169067,463.540924 296.431396,461.964813 292.003296,459.834778 
	C290.285065,459.008270 288.371124,456.353821 288.466431,454.638824 
	C288.556488,453.018616 290.893768,450.922852 292.719788,450.114960 
	C297.719574,447.902863 302.241058,451.315094 303.427094,457.803528 
	C307.869476,457.803528 312.320465,457.803528 317.355469,457.803528 
	C316.338867,451.722168 315.075012,446.409210 309.517761,442.873962 
	C301.061340,437.494354 292.251190,437.672333 283.548798,441.303772 
	C277.458588,443.845184 274.172180,448.991669 273.962738,455.913025 
	C273.753021,462.844086 276.742859,467.698639 282.978180,470.438782 
	C286.915436,472.169037 290.956085,473.776276 295.096161,474.902771 
	C299.630554,476.136536 304.491791,478.118958 303.617096,483.041931 
	C302.810455,487.581757 297.665375,488.545990 292.250305,487.778992 
M301.559052,289.958496 
	C298.252808,292.923584 295.040649,296.002563 291.619812,298.828979 
	C285.430084,303.943207 285.378052,303.880280 287.930573,311.729858 
	C289.507111,316.578186 290.872864,317.082367 295.014740,314.487488 
	C308.368073,306.121613 318.585876,295.045807 325.149048,280.583984 
	C330.052368,269.779694 334.807068,258.843964 343.867523,250.559204 
	C348.176514,246.619095 348.290375,242.777603 344.714813,239.217911 
	C340.891388,235.411484 335.864258,235.059311 332.434601,239.249222 
	C327.612854,245.139877 323.000153,251.309448 319.144043,257.857910 
	C313.075745,268.163086 307.711945,278.883087 301.559052,289.958496 
M405.495819,371.004242 
	C401.840546,373.709167 398.318573,376.621246 394.502747,379.076691 
	C386.057343,384.511200 377.444092,389.684235 368.946747,395.039246 
	C367.042908,396.239014 364.524384,397.564972 366.934692,400.360077 
	C368.962433,402.711517 376.384003,403.652679 379.359131,402.240845 
	C393.070282,395.734406 405.762451,387.724884 417.659088,378.215424 
	C428.536041,369.520966 438.104767,359.789368 446.033783,348.404205 
	C447.751770,345.937317 448.710358,343.270691 446.753876,340.366333 
	C443.400299,335.388000 438.037750,336.764984 433.028320,342.400208 
	C424.403046,352.102966 415.053131,361.161591 405.495819,371.004242 
M452.000000,485.482849 
	C452.000000,489.254333 452.000000,493.025787 452.000000,496.716797 
	C456.638824,496.716797 460.711395,496.716797 465.167236,496.716797 
	C465.167236,481.365082 465.167236,466.292694 465.167236,450.833771 
	C471.637207,450.833771 477.716644,450.833771 483.715515,450.833771 
	C483.715515,447.024994 483.715515,443.618622 483.715515,440.279785 
	C466.692230,440.279785 449.954865,440.279785 433.283020,440.279785 
	C433.283020,443.972137 433.283020,447.378510 433.283020,451.169434 
	C439.637360,451.169434 445.714996,451.169434 452.000000,451.169434 
	C452.000000,462.541992 452.000000,473.515503 452.000000,485.482849 
M356.004974,332.495209 
	C345.131989,343.276245 332.127838,351.089966 319.193970,359.013092 
	C317.987152,359.752350 316.114136,361.090637 316.205566,361.980865 
	C316.693787,366.734802 327.672852,372.104431 331.866425,369.489594 
	C346.029327,360.658569 359.968079,351.483032 371.402832,339.086365 
	C373.573608,336.733032 373.630676,330.527130 371.562653,328.080688 
	C369.454926,325.587311 364.119598,325.145660 361.139557,327.444092 
	C359.439972,328.755035 358.045898,330.462097 356.004974,332.495209 
M422.993042,187.469223 
	C432.806580,194.620010 442.584595,201.820648 452.473297,208.865952 
	C453.898651,209.881454 455.856415,210.149597 457.567780,210.763580 
	C458.264923,208.586151 459.962494,206.161545 459.495575,204.271729 
	C456.629059,192.669693 437.271149,180.685638 425.597839,183.163391 
	C424.341003,183.430161 423.493317,185.624603 422.993042,187.469223 
M315.536377,196.978653 
	C319.947174,194.233490 324.414276,191.572708 328.732330,188.688751 
	C329.935577,187.885117 330.697998,186.421494 331.662628,185.260620 
	C330.130219,184.506363 328.450623,182.907745 327.091034,183.144791 
	C321.366272,184.142944 315.422760,184.953857 310.147339,187.208878 
	C302.439758,190.503555 296.350433,196.096619 294.283386,204.698166 
	C293.880096,206.376221 294.809174,209.217514 296.114655,210.184738 
	C297.082825,210.902054 300.039001,209.953339 301.444214,208.877563 
	C306.127838,205.291901 310.511627,201.314606 315.536377,196.978653 
M474.768005,555.464661 
	C472.627289,545.973816 470.486603,536.482971 468.345886,526.992126 
	C468.027130,526.940674 467.708405,526.889160 467.389648,526.837646 
	C464.616669,533.859558 461.843689,540.881470 458.876831,548.394348 
	C455.839020,540.586304 453.158173,533.695679 450.477325,526.805115 
	C450.108612,526.927307 449.739899,527.049561 449.371185,527.171814 
	C447.318481,536.612366 445.265778,546.052917 443.122833,555.908508 
	C444.217438,555.908508 445.912354,556.162964 446.012512,555.870728 
	C447.790466,550.684387 449.374451,545.431641 451.193756,539.570007 
	C453.777863,546.039124 456.206451,552.118896 458.983734,559.071594 
	C461.733948,552.016113 464.027527,546.132202 466.321075,540.248291 
	C468.194397,544.404968 469.411804,548.430969 469.897766,552.543457 
	C470.246124,555.491821 471.499908,556.282166 474.768005,555.464661 
M298.434174,248.883026 
	C293.461884,247.318069 289.605621,248.283707 288.315948,252.630142 
	C286.076538,260.177216 284.608521,267.965729 283.126556,275.712189 
	C282.888763,276.955200 284.256897,278.505463 284.882629,279.913696 
	C286.113525,279.246216 287.841461,278.893158 288.494904,277.860321 
	C292.800110,271.055450 296.926514,264.134979 300.999512,257.186768 
	C302.842407,254.042938 302.131256,251.256393 298.434174,248.883026 
M299.944763,341.648651 
	C301.757812,346.870758 306.098938,348.210754 310.499176,346.765381 
	C313.976959,345.622986 317.407684,342.990356 319.748962,340.115326 
	C322.070709,337.264252 322.053314,333.322052 319.039398,330.286987 
	C316.570648,327.800934 313.747742,326.190735 310.152924,327.957794 
	C306.980774,329.517120 303.881836,331.225586 300.707458,332.780182 
	C296.240936,334.967621 296.165619,337.725983 299.944763,341.648651 
M345.008514,539.901245 
	C344.994171,548.405273 347.944397,553.684143 353.803436,555.920715 
	C361.733124,558.947693 372.807556,554.922058 373.741638,543.003906 
	C369.924652,543.003906 366.133911,543.003479 362.343140,543.004333 
	C361.844177,543.004456 361.226990,542.826294 360.871613,543.053894 
	C360.193115,543.488464 359.663849,544.155884 359.072601,544.726624 
	C359.652069,545.146057 360.215302,545.898499 360.813843,545.927612 
	C363.504456,546.058960 366.205078,545.984863 369.431183,545.984863 
	C365.022766,552.432983 360.019318,554.401672 355.425995,552.125366 
	C350.330383,549.600098 347.582916,543.602173 349.185730,538.502258 
	C350.601074,533.998901 355.666901,530.860718 361.091980,532.187805 
	C363.860809,532.865112 366.143829,535.485474 368.679382,537.178223 
	C369.858002,537.965088 371.115204,538.634216 373.181152,539.856140 
	C372.912598,537.694458 372.976532,536.987488 372.729919,536.414062 
	C370.388367,530.968872 365.053619,527.798706 358.467682,528.015625 
	C351.203796,528.254822 346.964264,532.266296 345.008514,539.901245 
M334.991272,544.177368 
	C334.993164,543.511047 335.026672,542.843018 334.992035,542.178589 
	C334.610046,534.845642 328.968170,528.596436 322.507568,527.971252 
	C314.128937,527.160461 307.845337,532.061768 306.095520,540.174194 
	C304.906128,545.688354 308.967560,554.689026 316.538940,556.332397 
	C325.161560,558.203979 330.960419,555.241943 334.991272,544.177368 
M278.114471,528.803345 
	C278.114471,537.734802 278.114471,546.666199 278.114471,555.582825 
	C281.184448,555.675842 281.184448,555.675842 282.618317,544.604248 
	C285.194763,547.517578 287.246796,549.514343 288.914062,551.792664 
	C292.076416,556.114075 291.984802,556.181091 296.595886,555.434509 
	C294.289948,552.203796 292.013123,549.013916 289.581421,545.606995 
	C294.801453,543.698608 297.151154,540.460999 296.273804,535.794312 
	C295.234772,530.267822 292.049866,528.052734 286.240417,528.010925 
	C283.752045,527.993042 281.262878,528.083557 278.114471,528.803345 
M385.086884,555.071167 
	C386.277039,555.388855 387.467194,555.706482 389.298401,556.195312 
	C389.298401,552.210022 389.298401,549.180298 389.298401,546.094055 
	C395.368958,547.371216 394.877289,557.444641 403.569489,555.583069 
	C400.716064,551.970825 398.330597,548.950867 395.923126,545.903137 
	C401.232361,543.540222 403.527527,540.329407 402.975983,535.956177 
	C402.408691,531.457764 399.342896,528.987305 395.291382,528.261475 
	C392.006012,527.672791 388.531067,528.142029 385.012878,528.142029 
	C385.012878,537.224365 385.012878,545.680542 385.086884,555.071167 
M503.152496,552.385193 
	C505.207092,545.506165 503.486694,542.488403 496.825989,540.962769 
	C494.795654,540.497681 492.710938,539.902222 490.913239,538.897461 
	C489.266663,537.977173 485.790161,537.218689 488.168152,534.360657 
	C489.545532,532.705139 492.230469,531.826843 494.485352,531.353943 
	C495.488708,531.143433 496.817566,532.929138 498.117157,533.567749 
	C499.533722,534.263855 501.087524,534.680481 503.306885,535.480469 
	C500.679443,529.056641 497.805206,527.451538 491.329010,528.010620 
	C486.791443,528.402222 483.933044,531.322876 483.363739,535.355652 
	C482.828949,539.143982 485.294220,541.906311 489.267029,543.019958 
	C492.043549,543.798279 494.843597,544.677429 497.400360,545.971497 
	C498.555115,546.555969 500.050598,548.544739 499.784546,549.391418 
	C499.341064,550.802551 497.646698,552.747192 496.404938,552.802429 
	C493.045410,552.951904 488.984070,554.509216 486.813751,549.883057 
	C486.483673,549.179443 484.495605,549.253601 482.932037,548.887939 
	C485.043030,558.010803 495.404266,559.815918 503.152496,552.385193 
M361.464386,373.983948 
	C358.781616,371.564270 356.036285,371.540680 352.994171,373.449677 
	C349.298676,375.768738 345.355164,377.707489 341.766846,380.171753 
	C340.901215,380.766174 340.272064,383.280579 340.797577,384.057495 
	C343.328094,387.798737 350.622437,389.634125 354.806061,387.980591 
	C363.295258,384.625305 365.474396,380.562012 361.464386,373.983948 
M423.474884,527.194397 
	C422.280792,529.616211 420.959686,531.984802 419.916809,534.470032 
	C416.967041,541.499878 414.131256,548.577637 411.310333,555.490112 
	C414.484894,556.747375 415.903931,555.985291 416.584900,553.005493 
	C417.172211,550.435730 418.626495,548.284180 422.058624,548.962830 
	C425.225861,549.589050 429.543427,547.165710 430.524261,552.959717 
	C430.981781,555.662537 433.026947,557.028442 436.048584,555.195496 
	C432.029327,545.949768 428.050293,536.796448 423.474884,527.194397 
M254.093903,546.856323 
	C255.804367,546.566650 257.508331,546.228882 259.226532,545.996277 
	C264.438904,545.290527 267.938995,541.770752 267.996460,537.121704 
	C268.053741,532.486938 264.609253,528.627563 259.472992,528.076904 
	C256.418884,527.749512 253.301041,528.016968 250.179749,528.016968 
	C250.179749,537.611328 250.179749,546.545654 250.179749,555.480042 
	C250.561432,555.784180 250.943115,556.088379 251.324799,556.392517 
	C252.215576,555.347778 253.575912,554.424561 253.885071,553.229370 
	C254.328888,551.513550 254.006485,549.599548 254.093903,546.856323 
M332.095459,483.013916 
	C331.089264,483.822479 330.096069,484.647888 329.074371,485.436401 
	C326.000366,487.808716 326.123718,491.347687 327.663940,493.849091 
	C329.068512,496.130127 332.132507,498.422302 334.661255,498.664856 
	C336.845428,498.874329 340.178284,496.763184 341.481140,494.711365 
	C345.546265,488.309387 341.482269,483.000214 332.095459,483.013916 
M417.315186,483.000061 
	C413.122925,482.694702 409.718781,483.896637 409.080841,488.525146 
	C408.555237,492.338623 408.916168,496.165741 413.244385,497.974457 
	C417.465637,499.738495 422.387909,497.763306 423.988342,493.753937 
	C426.167236,488.295441 424.522278,485.266205 417.315186,483.000061 
M283.000458,229.570221 
	C283.077942,230.999817 283.155426,232.429428 283.282867,234.780869 
	C285.017975,233.753876 286.550354,233.367874 287.130524,232.406982 
	C288.961975,229.373657 290.655273,226.210251 291.941132,222.917236 
	C292.450623,221.612427 291.748535,219.834534 291.598083,218.272049 
	C289.733612,218.861588 287.014160,218.892487 286.186371,220.159393 
	C284.566406,222.638611 284.001923,225.807510 283.000458,229.570221 
M469.488678,233.902130 
	C472.206848,229.503784 470.173004,220.425064 465.800995,218.413895 
	C463.723267,217.458115 460.340271,217.912201 461.265869,220.558105 
	C462.929718,225.314407 466.123718,229.535446 469.488678,233.902130 
M373.355133,180.002472 
	C374.187714,180.001373 375.159424,180.274567 375.822021,179.938385 
	C376.972687,179.354568 377.932251,178.394058 378.971954,177.591507 
	C377.930420,176.738464 377.001190,175.432144 375.820770,175.139664 
	C374.092621,174.711502 372.113525,174.693832 370.372314,175.084564 
	C368.515350,175.501282 365.334595,176.533035 365.296936,177.406830 
	C365.139801,181.053329 368.373199,179.719818 370.453613,179.988602 
	C371.108734,180.073242 371.784027,180.002121 373.355133,180.002472 
z"/>
<path fill="#FFFFFF" opacity="1.000000" stroke="none" 
	d="
M398.999878,447.886871 
	C399.485352,451.301239 397.516388,451.020386 395.628601,451.013336 
	C387.307617,450.982239 378.986450,450.999908 370.332916,450.999908 
	C370.332916,454.859039 370.332916,458.599609 370.332916,462.744080 
	C378.853149,462.744080 387.599182,462.744080 396.670715,462.744080 
	C396.670715,466.533264 396.670715,469.940552 396.670715,473.750092 
	C388.141571,473.750092 379.394287,473.750092 370.325500,473.750092 
	C370.325500,477.873444 370.325500,481.613892 370.325500,485.758179 
	C379.535583,485.758179 388.947815,485.758179 398.678009,485.758179 
	C398.678009,489.543579 398.678009,492.950958 398.678009,497.000000 
	C391.780334,497.000000 384.686615,497.000000 377.592865,497.000000 
	C370.607849,497.000000 363.622803,497.000000 356.319244,497.000000 
	C356.319244,478.113953 356.319244,459.377472 356.319244,440.319824 
	C370.217072,440.319824 384.287537,440.319824 399.000000,440.319824 
	C399.000000,442.559814 399.000000,444.984619 398.999878,447.886871 
z"/>
<path fill="#FFFFFF" opacity="1.000000" stroke="none" 
	d="
M292.648376,487.881836 
	C297.665375,488.545990 302.810455,487.581757 303.617096,483.041931 
	C304.491791,478.118958 299.630554,476.136536 295.096161,474.902771 
	C290.956085,473.776276 286.915436,472.169037 282.978180,470.438782 
	C276.742859,467.698639 273.753021,462.844086 273.962738,455.913025 
	C274.172180,448.991669 277.458588,443.845184 283.548798,441.303772 
	C292.251190,437.672333 301.061340,437.494354 309.517761,442.873962 
	C315.075012,446.409210 316.338867,451.722168 317.355469,457.803528 
	C312.320465,457.803528 307.869476,457.803528 303.427094,457.803528 
	C302.241058,451.315094 297.719574,447.902863 292.719788,450.114960 
	C290.893768,450.922852 288.556488,453.018616 288.466431,454.638824 
	C288.371124,456.353821 290.285065,459.008270 292.003296,459.834778 
	C296.431396,461.964813 301.169067,463.540924 305.903625,464.926422 
	C317.613190,468.353119 319.978821,478.955505 316.953735,487.535736 
	C315.170441,492.593811 311.225861,495.562866 306.155457,497.002228 
	C296.664276,499.696533 287.418182,499.623779 278.883911,493.963654 
	C274.058167,490.763153 272.360016,485.906464 271.932068,480.160004 
	C276.645203,480.160004 280.949554,480.160004 285.253937,480.160004 
	C284.606110,480.795441 283.958282,481.430878 283.310455,482.066345 
	C286.290405,483.970551 289.270355,485.874786 292.648376,487.881836 
z"/>
<path fill="#49BCF5" opacity="1.000000" stroke="none" 
	d="
M432.833893,270.005249 
	C437.423218,295.647858 431.130157,318.659821 414.707642,338.491730 
	C406.509460,348.391937 396.804779,357.096191 387.312225,365.831482 
	C385.300751,367.682526 381.227417,367.906342 378.137207,367.810486 
	C374.584717,367.700348 372.903595,363.539124 374.642731,359.927246 
	C375.401031,358.352234 376.680695,356.992065 377.871429,355.667175 
	C387.221863,345.263336 397.359711,335.461029 405.774567,324.352020 
	C414.401215,312.963440 419.474182,299.687378 419.422485,284.394165 
	C421.375458,281.974091 422.818176,279.958527 424.513153,278.183960 
	C427.197998,275.372986 430.051666,272.723206 432.833893,270.005249 
z"/>
<path fill="#49BCE4" opacity="1.000000" stroke="none" 
	d="
M379.955200,280.111084 
	C373.747742,275.424744 368.541840,277.159576 365.985687,284.762085 
	C361.398926,298.403900 354.905090,310.871613 343.941681,320.592560 
	C340.513580,323.632172 333.502014,323.994385 330.759491,321.251129 
	C327.903839,318.394714 328.499603,313.415558 332.118378,309.365051 
	C332.866180,308.528015 333.360748,307.468536 334.082611,306.603882 
	C341.597107,297.602600 346.562286,287.228027 349.887695,276.114014 
	C353.644623,263.557617 363.688904,257.773682 375.824982,258.139038 
	C381.622162,258.313599 387.396790,259.909149 391.652771,264.775940 
	C387.640289,270.200165 383.797729,275.155609 379.955200,280.111084 
z"/>
<path fill="#49BCDB" opacity="1.000000" stroke="none" 
	d="
M301.804474,289.692993 
	C307.711945,278.883087 313.075745,268.163086 319.144043,257.857910 
	C323.000153,251.309448 327.612854,245.139877 332.434601,239.249222 
	C335.864258,235.059311 340.891388,235.411484 344.714813,239.217911 
	C348.290375,242.777603 348.176514,246.619095 343.867523,250.559204 
	C334.807068,258.843964 330.052368,269.779694 325.149048,280.583984 
	C318.585876,295.045807 308.368073,306.121613 295.014740,314.487488 
	C290.872864,317.082367 289.507111,316.578186 287.930573,311.729858 
	C285.378052,303.880280 285.430084,303.943207 291.619812,298.828979 
	C295.040649,296.002563 298.252808,292.923584 301.804474,289.692993 
z"/>
<path fill="#49BCFC" opacity="1.000000" stroke="none" 
	d="
M405.751587,370.747375 
	C415.053131,361.161591 424.403046,352.102966 433.028320,342.400208 
	C438.037750,336.764984 443.400299,335.388000 446.753876,340.366333 
	C448.710358,343.270691 447.751770,345.937317 446.033783,348.404205 
	C438.104767,359.789368 428.536041,369.520966 417.659088,378.215424 
	C405.762451,387.724884 393.070282,395.734406 379.359131,402.240845 
	C376.384003,403.652679 368.962433,402.711517 366.934692,400.360077 
	C364.524384,397.564972 367.042908,396.239014 368.946747,395.039246 
	C377.444092,389.684235 386.057343,384.511200 394.502747,379.076691 
	C398.318573,376.621246 401.840546,373.709167 405.751587,370.747375 
z"/>
<path fill="#FFFFFF" opacity="1.000000" stroke="none" 
	d="
M452.000000,484.985931 
	C452.000000,473.515503 452.000000,462.541992 452.000000,451.169434 
	C445.714996,451.169434 439.637360,451.169434 433.283020,451.169434 
	C433.283020,447.378510 433.283020,443.972137 433.283020,440.279785 
	C449.954865,440.279785 466.692230,440.279785 483.715515,440.279785 
	C483.715515,443.618622 483.715515,447.024994 483.715515,450.833771 
	C477.716644,450.833771 471.637207,450.833771 465.167236,450.833771 
	C465.167236,466.292694 465.167236,481.365082 465.167236,496.716797 
	C460.711395,496.716797 456.638824,496.716797 452.000000,496.716797 
	C452.000000,493.025787 452.000000,489.254333 452.000000,484.985931 
z"/>
<path fill="#49BCD5" opacity="1.000000" stroke="none" 
	d="
M368.005798,204.830734 
	C347.775208,207.413422 330.647675,215.581299 318.172272,232.288803 
	C314.902924,236.667236 309.842529,237.880753 306.883575,235.344345 
	C304.085205,232.945602 304.534058,227.908310 307.641479,223.826355 
	C321.266846,205.927826 339.721680,196.209778 361.427094,192.081009 
	C365.261749,191.351593 369.235535,191.353333 373.573425,191.470947 
	C373.029785,194.087662 372.078949,196.260696 371.079834,198.411270 
	C370.080261,200.562775 369.032440,202.691833 368.005798,204.830734 
z"/>
<path fill="#49BCEB" opacity="1.000000" stroke="none" 
	d="
M356.259613,332.242981 
	C358.045898,330.462097 359.439972,328.755035 361.139557,327.444092 
	C364.119598,325.145660 369.454926,325.587311 371.562653,328.080688 
	C373.630676,330.527130 373.573608,336.733032 371.402832,339.086365 
	C359.968079,351.483032 346.029327,360.658569 331.866425,369.489594 
	C327.672852,372.104431 316.693787,366.734802 316.205566,361.980865 
	C316.114136,361.090637 317.987152,359.752350 319.193970,359.013092 
	C332.127838,351.089966 345.131989,343.276245 356.259613,332.242981 
z"/>
<path fill="#49BCFC" opacity="1.000000" stroke="none" 
	d="
M460.045837,252.889252 
	C461.360596,258.650177 463.087280,264.355286 463.877502,270.187256 
	C464.714722,276.365967 465.444183,282.745239 464.816040,288.893402 
	C463.848206,298.366516 461.787048,307.737366 459.976135,317.110382 
	C459.227417,320.985443 456.168427,322.387848 452.612946,321.761536 
	C448.830353,321.095276 446.235413,316.698608 447.445923,313.179810 
	C451.336578,301.870148 452.755463,290.250824 451.950287,278.379333 
	C451.621155,273.527130 450.664886,268.717499 450.292328,263.421478 
	C453.742432,259.599396 456.894135,256.244324 460.045837,252.889252 
z"/>
<path fill="#49BCEB" opacity="1.000000" stroke="none" 
	d="
M380.122253,280.460266 
	C383.797729,275.155609 387.640289,270.200165 391.796326,265.098755 
	C400.981842,272.373871 400.992218,282.545319 399.529724,292.455780 
	C398.661865,298.336731 395.557526,303.967773 392.955078,309.473083 
	C391.915131,311.672974 389.816437,314.150543 387.664642,314.845825 
	C385.091675,315.677185 381.380920,315.675079 379.175293,314.349548 
	C375.513123,312.148651 376.424347,308.050781 377.889862,304.631897 
	C380.346375,298.901184 382.829254,293.197906 381.955597,286.767670 
	C381.680573,284.743530 380.860168,282.793457 380.122253,280.460266 
z"/>
<path fill="#49BCE1" opacity="1.000000" stroke="none" 
	d="
M400.954102,245.111435 
	C391.678162,240.016251 382.098694,236.855301 371.223206,238.908249 
	C363.280945,240.407501 359.227753,236.076645 359.968658,229.499527 
	C360.502136,224.763702 362.859894,222.417603 369.056335,222.054672 
	C383.685242,221.197830 397.681824,223.140793 409.652954,232.775665 
	C406.639496,237.200272 403.796783,241.155853 400.954102,245.111435 
z"/>
<path fill="#49BCEB" opacity="1.000000" stroke="none" 
	d="
M460.029358,252.499664 
	C456.894135,256.244324 453.742432,259.599396 450.234009,262.994568 
	C445.285431,253.513260 441.008759,243.819687 435.948883,234.553818 
	C433.880707,230.766449 430.159973,227.864624 427.114288,224.632233 
	C423.344604,220.631439 422.941101,216.645676 426.094299,213.398132 
	C428.424316,210.998352 433.718933,211.265228 436.802673,214.330673 
	C447.573456,225.037521 455.917938,237.280289 460.029358,252.499664 
z"/>
<path fill="#49BCEB" opacity="1.000000" stroke="none" 
	d="
M401.091309,245.424133 
	C403.796783,241.155853 406.639496,237.200272 409.795990,233.098389 
	C422.069550,240.876678 428.079102,252.744217 432.005096,265.992676 
	C432.324219,267.069550 432.647827,268.145020 432.901611,269.613220 
	C430.051666,272.723206 427.197998,275.372986 424.513153,278.183960 
	C422.818176,279.958527 421.375458,281.974091 419.492950,283.942627 
	C418.876038,270.848572 414.659393,259.187225 405.797913,249.362396 
	C404.513580,247.938477 402.763214,246.934906 401.091309,245.424133 
z"/>
<path fill="#49BCE1" opacity="1.000000" stroke="none" 
	d="
M368.469360,204.900131 
	C369.032440,202.691833 370.080261,200.562775 371.079834,198.411270 
	C372.078949,196.260696 373.029785,194.087662 374.004089,191.546417 
	C386.666718,191.067719 398.892853,193.294418 410.554535,198.254196 
	C414.382812,199.882355 416.399719,204.369904 414.741211,207.486603 
	C412.695557,211.330750 408.815094,212.244003 405.383575,210.598755 
	C393.730774,205.011826 381.420349,204.629700 368.469360,204.900131 
z"/>
<path fill="#49BCEB" opacity="1.000000" stroke="none" 
	d="
M422.724457,187.197052 
	C423.493317,185.624603 424.341003,183.430161 425.597839,183.163391 
	C437.271149,180.685638 456.629059,192.669693 459.495575,204.271729 
	C459.962494,206.161545 458.264923,208.586151 457.567810,210.763580 
	C455.856415,210.149597 453.898651,209.881454 452.473297,208.865952 
	C442.584595,201.820648 432.806580,194.620010 422.724457,187.197052 
z"/>
<path fill="#47BDCD" opacity="1.000000" stroke="none" 
	d="
M315.273376,197.233032 
	C310.511627,201.314606 306.127838,205.291901 301.444214,208.877563 
	C300.039001,209.953339 297.082825,210.902054 296.114655,210.184738 
	C294.809174,209.217514 293.880096,206.376221 294.283386,204.698166 
	C296.350433,196.096619 302.439758,190.503555 310.147339,187.208878 
	C315.422760,184.953857 321.366272,184.142944 327.091034,183.144791 
	C328.450623,182.907745 330.130219,184.506363 331.662628,185.260635 
	C330.697998,186.421494 329.935577,187.885117 328.732330,188.688751 
	C324.414276,191.572708 319.947174,194.233490 315.273376,197.233032 
z"/>
<path fill="#47BDCD" opacity="1.000000" stroke="none" 
	d="
M474.433319,555.694824 
	C471.499908,556.282166 470.246124,555.491821 469.897766,552.543457 
	C469.411804,548.430969 468.194397,544.404968 466.321075,540.248291 
	C464.027527,546.132202 461.733948,552.016113 458.983734,559.071594 
	C456.206451,552.118896 453.777863,546.039124 451.193756,539.570007 
	C449.374451,545.431641 447.790466,550.684387 446.012512,555.870728 
	C445.912354,556.162964 444.217438,555.908508 443.122833,555.908508 
	C445.265778,546.052917 447.318481,536.612366 449.371185,527.171814 
	C449.739899,527.049561 450.108612,526.927307 450.477325,526.805115 
	C453.158173,533.695679 455.839020,540.586304 458.876831,548.394348 
	C461.843689,540.881470 464.616669,533.859558 467.389648,526.837646 
	C467.708405,526.889160 468.027130,526.940674 468.345886,526.992126 
	C470.486603,536.482971 472.627289,545.973816 474.433319,555.694824 
z"/>
<path fill="#49BCD5" opacity="1.000000" stroke="none" 
	d="
M298.828918,248.965714 
	C302.131256,251.256393 302.842407,254.042938 300.999512,257.186768 
	C296.926514,264.134979 292.800110,271.055450 288.494904,277.860321 
	C287.841461,278.893158 286.113525,279.246216 284.882629,279.913696 
	C284.256897,278.505463 282.888763,276.955200 283.126556,275.712189 
	C284.608521,267.965729 286.076538,260.177216 288.315948,252.630142 
	C289.605621,248.283707 293.461884,247.318069 298.828918,248.965714 
z"/>
<path fill="#49BCE1" opacity="1.000000" stroke="none" 
	d="
M299.723511,341.333740 
	C296.165619,337.725983 296.240936,334.967621 300.707458,332.780182 
	C303.881836,331.225586 306.980774,329.517120 310.152924,327.957794 
	C313.747742,326.190735 316.570648,327.800934 319.039398,330.286987 
	C322.053314,333.322052 322.070709,337.264252 319.748962,340.115326 
	C317.407684,342.990356 313.976959,345.622986 310.499176,346.765381 
	C306.098938,348.210754 301.757812,346.870758 299.723511,341.333740 
z"/>
<path fill="#47BDCD" opacity="1.000000" stroke="none" 
	d="
M345.025574,539.476379 
	C346.964264,532.266296 351.203796,528.254822 358.467682,528.015625 
	C365.053619,527.798706 370.388367,530.968872 372.729919,536.414062 
	C372.976532,536.987488 372.912598,537.694458 373.181152,539.856140 
	C371.115204,538.634216 369.858002,537.965088 368.679382,537.178223 
	C366.143829,535.485474 363.860809,532.865112 361.091980,532.187805 
	C355.666901,530.860718 350.601074,533.998901 349.185730,538.502258 
	C347.582916,543.602173 350.330383,549.600098 355.425995,552.125366 
	C360.019318,554.401672 365.022766,552.432983 369.431183,545.984863 
	C366.205078,545.984863 363.504456,546.058960 360.813843,545.927612 
	C360.215302,545.898499 359.652069,545.146057 359.072632,544.726624 
	C359.663849,544.155884 360.193115,543.488464 360.871613,543.053894 
	C361.226990,542.826294 361.844177,543.004456 362.343140,543.004333 
	C366.133911,543.003479 369.924652,543.003906 373.741638,543.003906 
	C372.807556,554.922058 361.733124,558.947693 353.803436,555.920715 
	C347.944397,553.684143 344.994171,548.405273 345.025574,539.476379 
z"/>
<path fill="#47BDCD" opacity="1.000000" stroke="none" 
	d="
M334.972076,544.595337 
	C330.960419,555.241943 325.161560,558.203979 316.538940,556.332397 
	C308.967560,554.689026 304.906128,545.688354 306.095520,540.174194 
	C307.845337,532.061768 314.128937,527.160461 322.507568,527.971252 
	C328.968170,528.596436 334.610046,534.845642 334.992035,542.178589 
	C335.026672,542.843018 334.993164,543.511047 334.972076,544.595337 
M317.566681,552.031860 
	C323.444611,554.118164 330.288422,550.058899 330.998108,544.065308 
	C331.590210,539.064636 327.554779,533.082886 322.880432,532.032349 
	C318.140411,530.967041 311.867554,534.588623 310.246002,539.326660 
	C308.525391,544.354126 310.965515,549.088501 317.566681,552.031860 
z"/>
<path fill="#47BDCD" opacity="1.000000" stroke="none" 
	d="
M278.444275,528.464111 
	C281.262878,528.083557 283.752045,527.993042 286.240417,528.010925 
	C292.049866,528.052734 295.234772,530.267822 296.273804,535.794312 
	C297.151154,540.460999 294.801453,543.698608 289.581421,545.606995 
	C292.013123,549.013916 294.289948,552.203796 296.595886,555.434509 
	C291.984802,556.181091 292.076416,556.114075 288.914062,551.792664 
	C287.246796,549.514343 285.194763,547.517578 282.618317,544.604248 
	C281.184448,555.675842 281.184448,555.675842 278.114471,555.582825 
	C278.114471,546.666199 278.114471,537.734802 278.444275,528.464111 
M285.366699,531.998474 
	C281.565094,532.589050 280.929932,534.990295 282.756592,541.866394 
	C289.300262,542.146912 293.370422,540.338318 292.762543,537.033020 
	C292.188721,533.912720 290.257690,531.279968 285.366699,531.998474 
z"/>
<path fill="#47BDCD" opacity="1.000000" stroke="none" 
	d="
M385.049866,554.604004 
	C385.012878,545.680542 385.012878,537.224365 385.012878,528.142029 
	C388.531067,528.142029 392.006012,527.672791 395.291382,528.261475 
	C399.342896,528.987305 402.408691,531.457764 402.975983,535.956177 
	C403.527527,540.329407 401.232361,543.540222 395.923126,545.903137 
	C398.330597,548.950867 400.716064,551.970825 403.569489,555.583069 
	C394.877289,557.444641 395.368958,547.371216 389.298401,546.094055 
	C389.298401,549.180298 389.298401,552.210022 389.298401,556.195312 
	C387.467194,555.706482 386.277039,555.388855 385.049866,554.604004 
M396.391724,541.139038 
	C398.905731,539.539734 399.740387,537.525208 398.221527,534.713318 
	C396.041351,530.677185 392.561066,532.243225 389.245239,532.162659 
	C389.245239,535.563416 389.245239,538.612610 389.245239,542.037720 
	C391.591644,541.918884 393.678802,541.813232 396.391724,541.139038 
z"/>
<path fill="#47BDCD" opacity="1.000000" stroke="none" 
	d="
M503.064514,552.784180 
	C495.404266,559.815918 485.043030,558.010803 482.932037,548.887939 
	C484.495605,549.253601 486.483673,549.179443 486.813751,549.883057 
	C488.984070,554.509216 493.045410,552.951904 496.404938,552.802429 
	C497.646698,552.747192 499.341064,550.802551 499.784546,549.391418 
	C500.050598,548.544739 498.555115,546.555969 497.400360,545.971497 
	C494.843597,544.677429 492.043549,543.798279 489.267029,543.019958 
	C485.294220,541.906311 482.828949,539.143982 483.363739,535.355652 
	C483.933044,531.322876 486.791443,528.402222 491.329010,528.010620 
	C497.805206,527.451538 500.679443,529.056641 503.306885,535.480469 
	C501.087524,534.680481 499.533722,534.263855 498.117157,533.567749 
	C496.817566,532.929138 495.488708,531.143433 494.485352,531.353943 
	C492.230469,531.826843 489.545532,532.705139 488.168152,534.360657 
	C485.790161,537.218689 489.266663,537.977173 490.913239,538.897461 
	C492.710938,539.902222 494.795654,540.497681 496.825989,540.962769 
	C503.486694,542.488403 505.207092,545.506165 503.064514,552.784180 
z"/>
<path fill="#49BCF5" opacity="1.000000" stroke="none" 
	d="
M361.740356,374.260010 
	C365.474396,380.562012 363.295258,384.625305 354.806061,387.980591 
	C350.622437,389.634125 343.328094,387.798737 340.797577,384.057495 
	C340.272064,383.280579 340.901215,380.766174 341.766846,380.171753 
	C345.355164,377.707489 349.298676,375.768738 352.994171,373.449677 
	C356.036285,371.540680 358.781616,371.564270 361.740356,374.260010 
z"/>
<path fill="#47BDCD" opacity="1.000000" stroke="none" 
	d="
M423.773071,527.418762 
	C428.050293,536.796448 432.029327,545.949768 436.048584,555.195496 
	C433.026947,557.028442 430.981781,555.662537 430.524261,552.959717 
	C429.543427,547.165710 425.225861,549.589050 422.058624,548.962830 
	C418.626495,548.284180 417.172211,550.435730 416.584900,553.005493 
	C415.903931,555.985291 414.484894,556.747375 411.310333,555.490112 
	C414.131256,548.577637 416.967041,541.499878 419.916809,534.470032 
	C420.959686,531.984802 422.280792,529.616211 423.773071,527.418762 
M423.463898,535.344421 
	C422.101837,538.798035 420.739807,542.251709 419.308929,545.879883 
	C422.135101,545.879883 424.760834,545.879883 427.827240,545.879883 
	C426.485382,542.419312 425.219727,539.155396 423.463898,535.344421 
z"/>
<path fill="#47BDCD" opacity="1.000000" stroke="none" 
	d="
M254.052551,547.313232 
	C254.006485,549.599548 254.328888,551.513550 253.885071,553.229370 
	C253.575912,554.424561 252.215576,555.347778 251.324799,556.392517 
	C250.943115,556.088379 250.561432,555.784180 250.179749,555.480042 
	C250.179749,546.545654 250.179749,537.611328 250.179749,528.016968 
	C253.301041,528.016968 256.418884,527.749512 259.472992,528.076904 
	C264.609253,528.627563 268.053741,532.486938 267.996460,537.121704 
	C267.938995,541.770752 264.438904,545.290527 259.226532,545.996277 
	C257.508331,546.228882 255.804367,546.566650 254.052551,547.313232 
M261.407013,541.126770 
	C262.192261,538.911133 264.018280,535.017822 263.592804,534.753906 
	C260.949951,533.114380 257.802063,532.288940 254.241058,530.980042 
	C254.241058,535.528442 254.241058,538.587646 254.241058,542.038574 
	C256.590607,541.915466 258.684143,541.805786 261.407013,541.126770 
z"/>
<path fill="#FFFFFF" opacity="1.000000" stroke="none" 
	d="
M332.513489,483.007416 
	C341.482269,483.000214 345.546265,488.309387 341.481140,494.711365 
	C340.178284,496.763184 336.845428,498.874329 334.661255,498.664856 
	C332.132507,498.422302 329.068512,496.130127 327.663940,493.849091 
	C326.123718,491.347687 326.000366,487.808716 329.074371,485.436401 
	C330.096069,484.647888 331.089264,483.822479 332.513489,483.007416 
z"/>
<path fill="#FFFFFF" opacity="1.000000" stroke="none" 
	d="
M417.732239,483.000641 
	C424.522278,485.266205 426.167236,488.295441 423.988342,493.753937 
	C422.387909,497.763306 417.465637,499.738495 413.244385,497.974457 
	C408.916168,496.165741 408.555237,492.338623 409.080841,488.525146 
	C409.718781,483.896637 413.122925,482.694702 417.732239,483.000641 
z"/>
<path fill="#47BDCD" opacity="1.000000" stroke="none" 
	d="
M283.000519,229.130585 
	C284.001923,225.807510 284.566406,222.638611 286.186371,220.159393 
	C287.014160,218.892487 289.733612,218.861588 291.598083,218.272049 
	C291.748535,219.834534 292.450623,221.612427 291.941132,222.917236 
	C290.655273,226.210251 288.961975,229.373657 287.130524,232.406982 
	C286.550354,233.367874 285.017975,233.753876 283.282867,234.780869 
	C283.155426,232.429428 283.077942,230.999817 283.000519,229.130585 
z"/>
<path fill="#49BCF5" opacity="1.000000" stroke="none" 
	d="
M469.083557,233.941116 
	C466.123718,229.535446 462.929718,225.314407 461.265869,220.558105 
	C460.340271,217.912201 463.723267,217.458115 465.800995,218.413895 
	C470.173004,220.425064 472.206848,229.503784 469.083557,233.941116 
z"/>
<path fill="#49BCD5" opacity="1.000000" stroke="none" 
	d="
M372.902588,180.002380 
	C371.784027,180.002121 371.108734,180.073242 370.453613,179.988602 
	C368.373199,179.719818 365.139801,181.053329 365.296936,177.406830 
	C365.334595,176.533035 368.515350,175.501282 370.372314,175.084564 
	C372.113525,174.693832 374.092621,174.711502 375.820770,175.139664 
	C377.001190,175.432144 377.930420,176.738464 378.971954,177.591507 
	C377.932251,178.394058 376.972687,179.354568 375.822021,179.938385 
	C375.159424,180.274567 374.187714,180.001373 372.902588,180.002380 
z"/>
<path fill="#000000" opacity="1.000000" stroke="none" 
	d="
M317.167694,552.006958 
	C310.965515,549.088501 308.525391,544.354126 310.246002,539.326660 
	C311.867554,534.588623 318.140411,530.967041 322.880432,532.032349 
	C327.554779,533.082886 331.590210,539.064636 330.998108,544.065308 
	C330.288422,550.058899 323.444611,554.118164 317.167694,552.006958 
z"/>
<path fill="#000000" opacity="1.000000" stroke="none" 
	d="
M285.804108,531.998352 
	C290.257690,531.279968 292.188721,533.912720 292.762543,537.033020 
	C293.370422,540.338318 289.300262,542.146912 282.756592,541.866394 
	C280.929932,534.990295 281.565094,532.589050 285.804108,531.998352 
z"/>
<path fill="#000000" opacity="1.000000" stroke="none" 
	d="
M396.078827,541.423279 
	C393.678802,541.813232 391.591644,541.918884 389.245239,542.037720 
	C389.245239,538.612610 389.245239,535.563416 389.245239,532.162659 
	C392.561066,532.243225 396.041351,530.677185 398.221527,534.713318 
	C399.740387,537.525208 398.905731,539.539734 396.078827,541.423279 
z"/>
<path fill="#000000" opacity="1.000000" stroke="none" 
	d="
M423.708984,535.617920 
	C425.219727,539.155396 426.485382,542.419312 427.827240,545.879883 
	C424.760834,545.879883 422.135101,545.879883 419.308929,545.879883 
	C420.739807,542.251709 422.101837,538.798035 423.708984,535.617920 
z"/>
<path fill="#000000" opacity="1.000000" stroke="none" 
	d="
M261.092346,541.411499 
	C258.684143,541.805786 256.590607,541.915466 254.241058,542.038574 
	C254.241058,538.587646 254.241058,535.528442 254.241058,530.980042 
	C257.802063,532.288940 260.949951,533.114380 263.592804,534.753906 
	C264.018280,535.017822 262.192261,538.911133 261.092346,541.411499 
z"/>
</svg>