<svg version="1.1" id="Layer_1" xmlns="http://www.w3.org/2000/svg" xmlns:xlink="http://www.w3.org/1999/xlink" x="0px" y="0px"
	 width="100%" viewBox="0 0 548 277" enable-background="new 0 0 548 277" xml:space="preserve">
<path fill="#FFFFFF" opacity="1.000000" stroke="none" 
	d="
M549.000000,205.000000 
	C549.000000,209.024551 549.000000,213.049088 548.535522,217.536819 
	C546.572571,218.000000 545.052917,218.162781 543.579529,217.970596 
	C538.368958,217.291016 534.137512,218.340759 531.126587,223.243073 
	C529.146179,226.467484 526.377502,229.207733 523.706360,232.477509 
	C520.949646,228.962891 518.463745,225.763123 515.944153,222.590103 
	C513.629333,219.675049 511.200928,217.748734 506.863708,217.859680 
	C492.388184,218.230026 477.897278,218.000000 463.412262,218.000000 
	C460.651276,218.000000 457.890259,218.000000 455.338898,218.000000 
	C455.338898,221.725189 455.338898,224.795395 455.338898,228.270981 
	C460.414001,228.270981 465.150421,228.270981 470.283936,228.270981 
	C470.283936,237.430389 470.283936,246.169205 470.283936,254.637527 
	C474.439087,254.637527 478.174347,254.637527 482.313354,254.637527 
	C482.313354,245.541061 482.313354,236.804626 482.313354,227.684433 
	C487.798309,227.684433 492.865112,227.684433 498.136932,227.684433 
	C498.136932,225.019501 498.136932,222.758575 498.136932,219.376312 
	C502.273010,224.352036 505.543884,228.767395 509.311798,232.707443 
	C515.003052,238.658707 520.009827,244.706909 518.063538,253.761688 
	C518.010681,254.007477 518.296204,254.326004 518.499023,254.778015 
	C522.161621,254.778015 525.896057,254.778015 530.000000,254.778015 
	C530.000000,252.769852 529.920288,250.973618 530.019470,249.187317 
	C530.154175,246.761597 529.529846,243.630585 530.792175,242.044312 
	C536.563110,234.792145 542.879517,227.974030 549.000000,221.000000 
	C549.000000,239.983978 549.000000,258.967957 549.000000,278.000000 
	C395.312439,278.000000 241.624878,278.000000 87.468704,277.603821 
	C87.911369,275.699158 88.462471,273.587128 89.798264,272.789917 
	C94.737869,269.841888 99.296440,271.687439 103.660912,275.310791 
	C103.825096,274.114288 104.031761,273.480927 103.976570,272.871277 
	C103.564148,268.315063 102.927010,263.771790 102.707893,259.207794 
	C102.539337,255.696884 104.038582,251.616455 102.703651,248.770996 
	C100.906929,244.941208 101.593941,241.528412 102.089531,238.045807 
	C103.392357,228.890717 105.233170,219.787766 110.603310,211.976578 
	C114.212875,206.726212 118.220345,201.749420 122.084030,196.604660 
	C122.603806,197.391281 123.475304,198.392761 123.997467,199.551620 
	C127.564903,207.469055 133.146408,214.360092 134.322449,223.551514 
	C134.855072,227.714264 137.725800,233.222687 141.147614,234.977188 
	C146.021606,237.476288 152.372177,237.133698 158.107010,237.891464 
	C159.729279,238.105820 161.403839,237.924225 164.080521,237.924225 
	C164.314178,236.227310 165.570190,233.492615 164.739120,231.757675 
	C163.199661,228.543869 161.329437,225.064423 156.240158,225.875443 
	C151.772247,226.587433 148.761597,223.444595 147.099411,219.725693 
	C143.956772,212.694443 141.280243,205.454865 138.677124,198.967484 
	C145.671280,195.858093 152.580765,192.786346 159.651474,189.642914 
	C162.445602,191.263321 165.526199,193.391083 168.882843,194.907990 
	C172.857513,196.704224 176.186127,198.510864 175.088943,203.803711 
	C174.904617,204.693008 175.655197,205.987274 176.324112,206.809387 
	C182.520386,214.424637 188.878326,221.909515 195.006653,229.578262 
	C197.840561,233.124512 201.957855,236.765274 202.500305,240.768738 
	C203.387131,247.313965 207.630234,249.401886 212.137802,252.072418 
	C215.637421,254.145767 219.001831,256.447266 222.687714,258.815308 
	C223.611954,257.725769 224.749268,256.385101 225.856644,255.079727 
	C228.445129,255.506622 230.997223,255.927505 233.563004,256.350647 
	C233.952835,257.566254 234.350189,258.805298 235.051636,260.992615 
	C236.631470,257.987915 237.729935,255.898697 239.414948,252.693909 
	C239.878937,255.324036 240.083298,256.482422 240.299927,257.710388 
	C245.625977,255.339645 246.467407,254.022690 245.997330,249.139343 
	C245.534500,244.331345 239.721848,239.004684 234.929169,239.000580 
	C231.261215,238.997437 227.591537,239.061584 223.926346,238.960999 
	C222.849106,238.931427 221.472626,238.775635 220.761414,238.111862 
	C211.679657,229.635773 203.587280,220.168488 201.190933,207.723999 
	C198.941574,196.042984 197.686707,184.072739 197.198730,172.180344 
	C196.788971,162.193954 192.991287,154.066605 187.755737,145.996399 
	C185.727768,142.870438 180.642319,141.019104 182.917709,135.436447 
	C185.870575,128.191650 189.625336,121.738556 196.004242,116.985420 
	C209.676712,106.797623 224.794662,108.244301 240.055115,111.596458 
	C248.689041,113.493019 251.413818,110.903984 249.370010,102.539604 
	C240.407227,100.710594 231.006332,101.479240 222.330261,96.675911 
	C232.186096,87.400169 246.112778,89.352135 247.894440,97.372215 
	C249.417130,95.574409 250.550949,93.806328 252.083664,92.509865 
	C256.037262,89.165733 258.333862,84.549355 257.151581,79.971458 
	C255.848007,74.923759 250.454788,77.634048 246.832962,77.003609 
	C246.671265,76.975456 246.500275,77.004112 246.333817,76.999405 
	C240.661362,76.839020 234.434647,78.676796 230.526413,72.297798 
	C230.052948,71.525040 228.525925,71.161659 227.439621,71.042595 
	C223.376465,70.597305 219.296219,70.293831 215.217331,70.009827 
	C210.193954,69.660072 205.156143,69.660812 202.813034,63.703808 
	C202.287842,62.368595 200.128937,61.675983 198.722153,60.687534 
	C198.148041,60.841370 197.573914,60.995205 196.999802,61.149040 
	C196.999802,63.974998 197.419785,66.888489 196.855301,69.596802 
	C196.465149,71.468727 195.077087,74.039703 193.515015,74.615013 
	C182.308655,78.742264 170.943451,82.438225 159.315140,86.377327 
	C159.168991,84.994232 158.931076,84.184258 159.024994,83.414772 
	C160.409866,72.067413 161.615509,60.689171 163.446762,49.412941 
	C163.810745,47.171661 166.267593,44.806980 168.366959,43.416679 
	C171.725159,41.192719 175.693573,39.915180 179.216568,37.908470 
	C183.240799,35.616261 184.659515,31.845091 183.947708,27.352940 
	C183.368988,23.700575 181.641464,21.090849 177.400543,21.306778 
	C175.951019,28.983513 171.929443,32.727615 165.441544,31.847437 
	C164.160019,31.673578 162.276917,29.647366 162.149185,28.331886 
	C161.562073,22.285822 167.841690,16.230112 174.208832,15.960824 
	C175.166214,15.920333 176.653442,14.756619 176.901505,13.842683 
	C178.360123,8.468632 175.354233,4.633911 172.000000,1.000000 
	C297.568604,1.000000 423.137207,1.000000 549.000000,1.000000 
	C549.000000,62.020580 549.000000,123.041634 548.639282,184.430420 
	C544.317810,179.716324 545.331787,173.702393 544.901917,167.892212 
	C544.632996,164.258041 544.259033,160.134354 542.367798,157.259598 
	C540.534424,154.472809 536.700623,153.002075 534.312988,151.346817 
	C535.650085,150.470108 537.787598,149.342957 539.605164,147.831116 
	C549.362976,139.714722 547.440002,128.613525 546.393372,118.140900 
	C545.993042,114.135239 543.526917,109.885277 540.895081,106.646156 
	C535.223145,99.665428 526.775513,98.262260 518.437439,98.099297 
	C501.458954,97.767464 484.469421,97.994148 467.484436,98.010590 
	C466.051849,98.011978 464.619385,98.162720 463.000000,98.254692 
	C463.000000,103.586563 462.790100,108.576340 463.099670,113.533684 
	C463.229858,115.619209 464.512970,117.618622 465.171082,119.689240 
	C465.845032,121.809547 466.892731,123.963066 466.918793,126.112457 
	C467.080231,139.432053 467.255463,152.761551 466.892059,166.073196 
	C466.710785,172.712921 469.473846,180.126587 463.137054,185.672913 
	C462.952820,185.834152 463.012970,186.310959 463.012604,186.640701 
	C463.006195,192.724625 463.007935,198.808548 463.007935,204.652405 
	C477.089233,204.652405 490.485352,204.652405 503.788208,204.652405 
	C503.788208,197.992706 505.805267,190.693207 503.312103,185.602676 
	C499.637817,178.100586 502.206085,171.211151 500.961761,164.117050 
	C508.221558,164.044601 510.853271,166.666916 511.023590,173.104172 
	C511.263794,182.183350 511.685577,191.257584 511.989624,200.335266 
	C512.089661,203.321747 512.865662,205.141708 516.530029,205.072723 
	C527.350037,204.869034 538.176208,204.999969 549.000000,205.000000 
M365.494019,120.003212 
	C365.991272,119.188904 366.904572,118.382317 366.919861,117.559082 
	C367.039124,111.128944 366.985840,104.695610 366.985840,98.000008 
	C354.318878,98.000008 342.185730,98.115173 330.057434,97.923668 
	C326.791931,97.872108 325.587555,98.926613 324.870148,102.098259 
	C322.811005,111.201668 320.372040,120.221283 317.965668,129.242722 
	C317.258911,131.892441 316.162781,134.438324 315.245117,137.031799 
	C314.927155,136.919052 314.609192,136.806305 314.291229,136.693573 
	C311.013733,123.810364 307.736206,110.927147 304.501648,98.212784 
	C290.268799,98.212784 276.332031,98.212784 262.112030,98.212784 
	C262.112030,104.701813 260.131287,111.933105 262.579163,117.042831 
	C266.194580,124.589752 266.371704,131.957474 265.850281,139.465958 
	C264.756805,155.211166 269.093536,171.215820 262.356232,186.824585 
	C260.143250,191.951538 262.007874,198.838531 262.007874,204.634415 
	C273.787018,204.634415 284.854279,204.634415 296.299591,204.634415 
	C294.674530,196.408905 297.367065,188.592056 292.780487,180.366776 
	C289.724854,174.887009 292.200439,166.322906 292.200439,159.139236 
	C292.827911,159.014313 293.455353,158.889389 294.082825,158.764465 
	C298.200073,174.187592 302.317291,189.610733 306.376770,204.817444 
	C310.485077,204.817444 314.121979,204.817444 317.754700,204.817444 
	C321.778015,188.850830 325.757965,173.056427 329.737885,157.262009 
	C330.158600,157.334030 330.579285,157.406067 331.000000,157.478088 
	C331.000000,162.869019 331.054138,168.260696 330.977661,173.650528 
	C330.938049,176.439621 331.597687,179.776718 330.332306,181.913239 
	C325.866180,189.454086 329.038239,197.237350 327.997833,204.642075 
	C341.438995,204.642075 354.171295,204.642075 367.268341,204.642075 
	C365.837158,196.634384 369.445312,188.453186 364.195740,181.235428 
	C363.628937,180.456116 364.005890,178.964462 364.005371,177.803207 
	C363.997650,160.314896 363.977325,142.826508 364.038849,125.338402 
	C364.044342,123.777451 364.596008,122.218422 365.494019,120.003212 
M404.396851,96.934280 
	C388.849670,98.341774 376.916412,106.826797 376.985565,125.341293 
	C377.052155,143.168198 376.752380,161.000290 377.094147,178.820908 
	C377.294708,189.278763 381.733795,197.866486 391.752625,202.205338 
	C411.411224,210.718887 430.762177,208.209061 449.749603,199.660782 
	C453.973663,197.759079 455.680237,194.541290 455.079803,189.799179 
	C454.664520,186.519577 455.000000,183.144928 455.000000,179.812744 
	C455.000000,173.231323 455.000000,166.649918 455.000000,160.199432 
	C443.652466,160.199432 433.036713,160.199432 421.999634,160.199432 
	C421.999634,165.674042 422.194946,170.970169 421.931976,176.243439 
	C421.752563,179.841156 420.615204,183.026749 415.949280,183.025757 
	C411.042603,183.024719 411.027039,179.582062 411.018646,176.217194 
	C410.977539,159.723022 411.046326,143.228455 410.966034,126.734566 
	C410.946991,122.821671 412.471710,120.230080 416.445801,120.076027 
	C420.820099,119.906456 421.693848,123.388504 421.940186,126.751030 
	C422.204071,130.353348 421.999695,133.989960 421.999695,137.779022 
	C433.152222,137.779022 443.885406,137.779022 455.000000,137.779022 
	C455.000000,129.107635 454.805603,120.645088 455.088440,112.198517 
	C455.215027,108.417336 453.835785,106.489639 450.542328,104.777138 
	C436.214783,97.327271 421.088013,94.670403 404.396851,96.934280 
M274.013428,244.123581 
	C270.143097,243.601654 266.272766,243.079712 262.390259,242.556137 
	C261.579803,251.529068 262.824127,254.259537 270.182251,254.851929 
	C279.916382,255.635590 289.764984,255.130722 299.560852,254.967468 
	C306.163483,254.857452 307.406952,251.847305 307.922272,246.441803 
	C308.777740,237.467545 307.423370,234.296265 300.937531,233.147964 
	C294.201233,231.955307 287.176239,232.478226 280.306366,231.905014 
	C278.163422,231.726212 274.350861,230.478912 274.323730,229.624695 
	C274.197968,225.668594 277.703400,227.325363 279.880615,227.032333 
	C281.188019,226.856354 282.539307,226.969513 283.869385,227.006226 
	C286.846039,227.088348 291.590790,226.083481 292.488983,227.501572 
	C296.206818,233.371384 301.225616,230.133408 305.657623,230.936035 
	C306.462433,221.816330 305.116028,218.668686 298.029694,218.268478 
	C288.359741,217.722366 278.600861,218.563446 268.889526,219.012527 
	C263.672852,219.253769 262.306122,223.039825 262.013550,227.469543 
	C261.926025,228.794861 262.195282,230.165451 261.966522,231.455994 
	C260.929321,237.306763 265.622406,240.922531 271.542877,240.987640 
	C276.866638,241.046188 282.204712,240.775940 287.510742,241.088333 
	C290.456390,241.261749 293.349304,242.330704 296.265991,242.996033 
	C294.922821,245.284027 293.765686,246.665604 292.545349,246.723892 
	C287.243591,246.977188 281.921143,246.921677 276.612457,246.765778 
	C275.856201,246.743576 275.134216,245.554810 274.013428,244.123581 
M423.086884,241.625244 
	C431.959717,241.625244 440.832581,241.625244 449.741302,241.625244 
	C449.741302,237.761734 449.741302,235.029510 449.741302,231.911667 
	C440.736298,231.911667 431.982635,231.911667 423.251221,231.911667 
	C423.251221,230.442963 423.251221,229.372238 423.251221,227.896255 
	C432.563904,227.896255 441.640930,227.896255 450.732483,227.896255 
	C450.732483,224.411789 450.732483,221.344406 450.732483,218.267319 
	C437.404083,218.267319 424.344971,218.267319 411.267303,218.267319 
	C411.267303,230.595810 411.267303,242.655075 411.267303,254.738525 
	C424.932007,254.738525 438.327759,254.738525 451.728760,254.738525 
	C451.728760,251.737640 451.728760,249.004974 451.728760,245.999924 
	C443.164062,245.999924 434.865662,245.898224 426.572266,246.058044 
	C423.864777,246.110214 422.459625,245.507370 423.086884,241.625244 
M312.037872,250.645782 
	C311.501495,252.035309 310.965118,253.424835 310.409637,254.863770 
	C315.095551,254.863770 319.407898,254.863770 323.985626,254.863770 
	C324.522522,249.507996 327.910492,248.512024 332.568268,248.934158 
	C336.198303,249.263138 339.897034,249.205032 343.537354,248.938324 
	C346.731140,248.704330 348.912415,249.420303 350.055359,252.702118 
	C350.388123,253.657684 351.754150,254.822876 352.715607,254.889145 
	C356.415985,255.144119 360.144318,254.992523 364.738617,254.992523 
	C359.607941,245.655563 354.005585,237.583313 350.595764,228.672104 
	C347.013123,219.309296 341.286621,216.249344 332.109772,218.063080 
	C330.775848,218.326736 329.046173,219.125381 328.452606,220.201904 
	C323.009583,230.073166 317.777130,240.060532 312.037872,250.645782 
M396.436951,234.000000 
	C390.669037,234.000000 384.901154,234.000000 378.933441,234.000000 
	C379.051117,231.660477 379.138458,229.923660 379.245331,227.798325 
	C388.359009,227.798325 397.095551,227.798325 405.680725,227.798325 
	C405.680725,224.307251 405.680725,221.239639 405.680725,218.309906 
	C392.638672,218.309906 379.917847,218.309906 367.300232,218.309906 
	C367.300232,230.679184 367.300232,242.736465 367.300232,254.692963 
	C371.343231,254.692963 375.078308,254.692963 379.214661,254.692963 
	C379.214661,250.650818 379.214661,246.912628 379.214661,242.789093 
	C387.698273,242.789093 395.770935,242.789093 403.678467,242.789093 
	C403.678467,239.641693 403.678467,236.908340 403.678467,234.000000 
	C401.377991,234.000000 399.397827,234.000000 396.436951,234.000000 
z"/>
<path fill="#E31936" opacity="1.000000" stroke="none" 
	d="
M171.571533,1.000000 
	C175.354233,4.633911 178.360123,8.468632 176.901505,13.842683 
	C176.653442,14.756619 175.166214,15.920333 174.208832,15.960824 
	C167.841690,16.230112 161.562073,22.285822 162.149185,28.331886 
	C162.276917,29.647366 164.160019,31.673578 165.441544,31.847437 
	C171.929443,32.727615 175.951019,28.983513 177.400543,21.306778 
	C181.641464,21.090849 183.368988,23.700575 183.947708,27.352940 
	C184.659515,31.845091 183.240799,35.616261 179.216568,37.908470 
	C175.693573,39.915180 171.725159,41.192719 168.366959,43.416679 
	C166.267593,44.806980 163.810745,47.171661 163.446762,49.412941 
	C161.615509,60.689171 160.409866,72.067413 159.024994,83.414772 
	C158.931076,84.184258 159.168991,84.994232 159.315140,86.377327 
	C170.943451,82.438225 182.308655,78.742264 193.515015,74.615013 
	C195.077087,74.039703 196.465149,71.468727 196.855301,69.596802 
	C197.419785,66.888489 196.999802,63.974998 196.999802,61.149040 
	C197.573914,60.995205 198.148041,60.841370 198.722153,60.687534 
	C200.128937,61.675983 202.287842,62.368595 202.813034,63.703808 
	C205.156143,69.660812 210.193954,69.660072 215.217331,70.009827 
	C219.296219,70.293831 223.376465,70.597305 227.439621,71.042595 
	C228.525925,71.161659 230.052948,71.525040 230.526413,72.297798 
	C234.434647,78.676796 240.661362,76.839020 246.333817,76.999405 
	C246.500275,77.004112 246.671265,76.975456 246.832962,77.003609 
	C250.454788,77.634048 255.848007,74.923759 257.151581,79.971458 
	C258.333862,84.549355 256.037262,89.165733 252.083664,92.509865 
	C250.550949,93.806328 249.417130,95.574409 247.894440,97.372215 
	C246.112778,89.352135 232.186096,87.400169 222.330261,96.675911 
	C231.006332,101.479240 240.407227,100.710594 249.370010,102.539604 
	C251.413818,110.903984 248.689041,113.493019 240.055115,111.596458 
	C224.794662,108.244301 209.676712,106.797623 196.004242,116.985420 
	C189.625336,121.738556 185.870575,128.191650 182.917709,135.436447 
	C180.642319,141.019104 185.727768,142.870438 187.755737,145.996399 
	C192.991287,154.066605 196.788971,162.193954 197.198730,172.180344 
	C197.686707,184.072739 198.941574,196.042984 201.190933,207.723999 
	C203.587280,220.168488 211.679657,229.635773 220.761414,238.111862 
	C221.472626,238.775635 222.849106,238.931427 223.926346,238.960999 
	C227.591537,239.061584 231.261215,238.997437 234.929169,239.000580 
	C239.721848,239.004684 245.534500,244.331345 245.997330,249.139343 
	C246.467407,254.022690 245.625977,255.339645 240.299927,257.710388 
	C240.083298,256.482422 239.878937,255.324036 239.414948,252.693909 
	C237.729935,255.898697 236.631470,257.987915 235.051636,260.992615 
	C234.350189,258.805298 233.952835,257.566254 233.563004,256.350647 
	C230.997223,255.927505 228.445129,255.506622 225.856644,255.079727 
	C224.749268,256.385101 223.611954,257.725769 222.687714,258.815308 
	C219.001831,256.447266 215.637421,254.145767 212.137802,252.072418 
	C207.630234,249.401886 203.387131,247.313965 202.500305,240.768738 
	C201.957855,236.765274 197.840561,233.124512 195.006653,229.578262 
	C188.878326,221.909515 182.520386,214.424637 176.324112,206.809387 
	C175.655197,205.987274 174.904617,204.693008 175.088943,203.803711 
	C176.186127,198.510864 172.857513,196.704224 168.882843,194.907990 
	C165.526199,193.391083 162.445602,191.263321 159.651474,189.642914 
	C152.580765,192.786346 145.671280,195.858093 138.677124,198.967484 
	C141.280243,205.454865 143.956772,212.694443 147.099411,219.725693 
	C148.761597,223.444595 151.772247,226.587433 156.240158,225.875443 
	C161.329437,225.064423 163.199661,228.543869 164.739120,231.757675 
	C165.570190,233.492615 164.314178,236.227310 164.080521,237.924225 
	C161.403839,237.924225 159.729279,238.105820 158.107010,237.891464 
	C152.372177,237.133698 146.021606,237.476288 141.147614,234.977188 
	C137.725800,233.222687 134.855072,227.714264 134.322449,223.551514 
	C133.146408,214.360092 127.564903,207.469055 123.997467,199.551620 
	C123.475304,198.392761 122.603806,197.391281 122.084030,196.604660 
	C118.220345,201.749420 114.212875,206.726212 110.603310,211.976578 
	C105.233170,219.787766 103.392357,228.890717 102.089531,238.045807 
	C101.593941,241.528412 100.906929,244.941208 102.703651,248.770996 
	C104.038582,251.616455 102.539337,255.696884 102.707893,259.207794 
	C102.927010,263.771790 103.564148,268.315063 103.976570,272.871277 
	C104.031761,273.480927 103.825096,274.114288 103.660912,275.310791 
	C99.296440,271.687439 94.737869,269.841888 89.798264,272.789917 
	C88.462471,273.587128 87.911369,275.699158 87.000046,277.603821 
	C86.555557,278.000000 86.111107,278.000000 85.213486,277.628662 
	C84.064224,274.587006 82.946228,271.725464 79.783875,272.191437 
	C77.066696,272.591797 74.551773,274.364777 71.947426,275.530853 
	C70.235764,274.887085 72.138893,266.297180 65.000572,272.814545 
	C65.000572,270.408813 64.477455,268.368347 65.110062,266.791534 
	C66.405380,263.562897 67.580025,258.995331 70.124603,257.807678 
	C76.940979,254.626144 81.107376,249.702103 82.530762,242.817947 
	C85.578033,228.079941 88.879364,213.328354 88.041023,198.078842 
	C87.878143,195.115982 88.305542,192.124832 88.326660,189.145798 
	C88.336479,187.761688 88.513962,185.727005 87.742424,185.145493 
	C86.649750,184.321869 84.057953,183.844070 83.348846,184.520493 
	C82.132896,185.680389 81.694054,187.803528 81.262642,189.602310 
	C80.624443,192.263229 80.870293,195.297180 79.677368,197.628769 
	C77.548203,201.790192 74.410416,205.422943 72.085762,209.499939 
	C68.760719,215.331406 65.386177,220.953064 66.765274,228.501877 
	C67.725807,233.759598 68.709023,240.057022 62.418980,243.676834 
	C58.374084,238.911346 58.303001,238.916382 51.447052,244.594772 
	C49.597881,240.410294 48.545399,240.305527 43.334736,244.053650 
	C43.123516,242.320145 42.934784,240.771164 42.719749,239.006363 
	C41.404343,239.163681 40.268806,239.299484 39.139175,239.434586 
	C39.095982,232.340057 41.641064,228.584335 47.764240,226.014420 
	C49.612606,225.238663 51.995884,224.408264 52.879921,222.878220 
	C58.926033,212.413895 63.519321,201.616745 59.581066,189.039642 
	C56.725235,179.919312 57.156067,170.980667 62.692371,162.772278 
	C64.749100,159.722870 66.927834,156.755737 69.223717,153.506546 
	C65.633766,154.045624 62.470894,154.703522 59.275490,154.967087 
	C48.366318,155.866928 39.391075,150.845215 30.738066,145.184967 
	C21.331131,139.031555 11.974051,139.292526 3.222690,146.219711 
	C2.640619,146.680466 1.748115,146.749023 1.000000,147.000000 
	C1.000000,145.933334 1.000000,144.866653 1.333700,143.310638 
	C11.822100,133.215347 27.455917,131.619629 40.280209,139.398941 
	C44.742817,142.105988 50.604324,143.647705 55.829185,143.653381 
	C61.666801,143.659729 67.653069,141.755402 73.306770,139.876541 
	C79.507271,137.815948 86.191429,136.119247 90.247429,129.682724 
	C83.243752,122.487770 74.128876,119.186806 65.547623,115.008522 
	C61.540936,113.057648 58.177540,114.394371 54.660107,116.647827 
	C50.606823,119.244576 46.299511,121.510506 41.912464,123.501282 
	C37.878315,125.331917 34.785587,122.937508 32.671406,119.871101 
	C32.076336,119.008018 33.637058,115.276604 34.054852,115.302971 
	C41.140793,115.750145 44.862545,111.475166 48.138302,105.873360 
	C48.225266,105.192123 48.066280,104.686081 47.907295,104.180038 
	C47.271744,104.731140 46.636189,105.282242 45.560509,105.905632 
	C39.175259,105.052399 34.488220,107.032898 30.806297,112.029663 
	C30.296076,112.025566 30.091990,112.034050 29.480423,112.024109 
	C24.455421,113.167488 22.029377,109.893631 19.724215,106.977966 
	C19.042809,106.116112 19.263323,103.285866 20.046284,102.728607 
	C24.575123,99.505318 29.395941,96.692268 34.822609,93.299812 
	C34.978897,89.637833 37.833805,86.247993 42.097290,84.532463 
	C49.673950,81.483788 55.807316,76.902611 60.342396,69.891853 
	C60.737225,69.635193 60.892673,69.424393 61.293541,69.036217 
	C62.187870,68.768761 62.773129,68.631744 63.710457,68.669212 
	C64.319466,68.894707 64.576408,68.945717 64.905342,69.383942 
	C64.894760,71.469658 64.812180,73.168152 64.773575,73.962219 
	C69.566666,71.423515 74.726952,68.690323 80.123672,65.972740 
	C80.360107,65.988342 80.833870,66.000160 80.905922,66.437897 
	C80.977974,69.951965 80.977974,73.028297 80.977974,76.620277 
	C88.394363,78.976967 96.201622,81.555107 104.109123,83.776314 
	C104.707855,83.944489 106.539658,81.719429 106.913742,80.362915 
	C109.142403,72.281586 111.110840,64.128487 113.507385,55.930836 
	C115.354645,52.853069 116.861168,49.843960 118.367691,46.834850 
	C117.835411,46.391495 117.303131,45.948143 116.770851,45.504787 
	C115.180763,46.614304 113.590675,47.723820 111.586761,48.905788 
	C109.776840,48.929939 108.380745,48.881638 106.891853,48.657600 
	C106.635193,48.262775 106.424393,48.107327 106.098434,47.666790 
	C112.707802,39.773720 118.494957,31.105040 129.424072,28.943830 
	C130.054321,28.819199 130.619797,28.130297 131.118011,27.610622 
	C137.238678,21.226282 142.783249,13.864207 153.206711,14.953118 
	C153.729492,15.007731 154.485062,14.670940 154.834869,14.262015 
	C158.591034,9.870819 162.287308,5.428391 166.000000,1.000000 
	C167.714355,1.000000 169.428711,1.000000 171.571533,1.000000 
z"/>
<path fill="#FFFFFF" opacity="1.000000" stroke="none" 
	d="
M31.112431,112.042252 
	C34.488220,107.032898 39.175259,105.052399 45.870514,105.978432 
	C47.044552,106.002144 47.468449,106.025352 47.892349,106.048553 
	C44.862545,111.475166 41.140793,115.750145 34.054852,115.302971 
	C33.637058,115.276604 32.076336,119.008018 32.671406,119.871101 
	C34.785587,122.937508 37.878315,125.331917 41.912464,123.501282 
	C46.299511,121.510506 50.606823,119.244576 54.660107,116.647827 
	C58.177540,114.394371 61.540936,113.057648 65.547623,115.008522 
	C74.128876,119.186806 83.243752,122.487770 90.247429,129.682724 
	C86.191429,136.119247 79.507271,137.815948 73.306770,139.876541 
	C67.653069,141.755402 61.666801,143.659729 55.829185,143.653381 
	C50.604324,143.647705 44.742817,142.105988 40.280209,139.398941 
	C27.455917,131.619629 11.822100,133.215347 1.333700,142.910645 
	C1.000000,95.734200 1.000000,48.468407 1.000000,1.000000 
	C55.687393,1.000000 110.375038,1.000000 165.531342,1.000000 
	C162.287308,5.428391 158.591034,9.870819 154.834869,14.262015 
	C154.485062,14.670940 153.729492,15.007731 153.206711,14.953118 
	C142.783249,13.864207 137.238678,21.226282 131.118011,27.610622 
	C130.619797,28.130297 130.054321,28.819199 129.424072,28.943830 
	C118.494957,31.105040 112.707802,39.773720 106.064606,47.925270 
	C106.394218,48.632771 106.689430,48.733055 106.984650,48.833336 
	C108.380745,48.881638 109.776840,48.929939 111.976151,48.988396 
	C112.908463,51.332195 113.037560,53.665844 113.166656,55.999493 
	C111.110840,64.128487 109.142403,72.281586 106.913742,80.362915 
	C106.539658,81.719429 104.707855,83.944489 104.109123,83.776314 
	C96.201622,81.555107 88.394363,78.976967 80.977974,76.620277 
	C80.977974,73.028297 80.977974,69.951965 80.938171,66.170486 
	C80.561325,65.629257 80.224274,65.793198 79.887230,65.957138 
	C74.726952,68.690323 69.566666,71.423515 64.773575,73.962219 
	C64.812180,73.168152 64.894760,71.469658 64.903229,69.084290 
	C64.338875,68.429855 63.848629,68.462288 63.358387,68.494720 
	C62.773129,68.631744 62.187870,68.768761 61.035061,69.002388 
	C60.367229,69.394218 60.266945,69.689430 60.166660,69.984650 
	C55.807316,76.902611 49.673950,81.483788 42.097290,84.532463 
	C37.833805,86.247993 34.978897,89.637833 34.822609,93.299812 
	C29.395941,96.692268 24.575123,99.505318 20.046284,102.728607 
	C19.263323,103.285866 19.042809,106.116112 19.724215,106.977966 
	C22.029377,109.893631 24.455421,113.167488 29.574837,112.279755 
	C30.421963,112.383293 30.767195,112.212769 31.112431,112.042252 
z"/>
<path fill="#FFFFFF" opacity="1.000000" stroke="none" 
	d="
M1.000000,147.468658 
	C1.748115,146.749023 2.640619,146.680466 3.222690,146.219711 
	C11.974051,139.292526 21.331131,139.031555 30.738066,145.184967 
	C39.391075,150.845215 48.366318,155.866928 59.275490,154.967087 
	C62.470894,154.703522 65.633766,154.045624 69.223717,153.506546 
	C66.927834,156.755737 64.749100,159.722870 62.692371,162.772278 
	C57.156067,170.980667 56.725235,179.919312 59.581066,189.039642 
	C63.519321,201.616745 58.926033,212.413895 52.879921,222.878220 
	C51.995884,224.408264 49.612606,225.238663 47.764240,226.014420 
	C41.641064,228.584335 39.095982,232.340057 39.139175,239.434586 
	C40.268806,239.299484 41.404343,239.163681 42.719749,239.006363 
	C42.934784,240.771164 43.123516,242.320145 43.334736,244.053650 
	C48.545399,240.305527 49.597881,240.410294 51.447052,244.594772 
	C58.303001,238.916382 58.374084,238.911346 62.418980,243.676834 
	C68.709023,240.057022 67.725807,233.759598 66.765274,228.501877 
	C65.386177,220.953064 68.760719,215.331406 72.085762,209.499939 
	C74.410416,205.422943 77.548203,201.790192 79.677368,197.628769 
	C80.870293,195.297180 80.624443,192.263229 81.262642,189.602310 
	C81.694054,187.803528 82.132896,185.680389 83.348846,184.520493 
	C84.057953,183.844070 86.649750,184.321869 87.742424,185.145493 
	C88.513962,185.727005 88.336479,187.761688 88.326660,189.145798 
	C88.305542,192.124832 87.878143,195.115982 88.041023,198.078842 
	C88.879364,213.328354 85.578033,228.079941 82.530762,242.817947 
	C81.107376,249.702103 76.940979,254.626144 70.124603,257.807678 
	C67.580025,258.995331 66.405380,263.562897 65.110062,266.791534 
	C64.477455,268.368347 65.000572,270.408813 65.000572,272.814545 
	C72.138893,266.297180 70.235764,274.887085 71.947426,275.530853 
	C74.551773,274.364777 77.066696,272.591797 79.783875,272.191437 
	C82.946228,271.725464 84.064224,274.587006 84.880157,277.628662 
	C57.057083,278.000000 29.114168,278.000000 1.000000,278.000000 
	C1.000000,234.645920 1.000000,191.291626 1.000000,147.468658 
z"/>
<path fill="#231F20" opacity="1.000000" stroke="none" 
	d="
M549.000000,204.531586 
	C538.176208,204.999969 527.350037,204.869034 516.530029,205.072723 
	C512.865662,205.141708 512.089661,203.321747 511.989624,200.335266 
	C511.685577,191.257584 511.263794,182.183350 511.023590,173.104172 
	C510.853271,166.666916 508.221558,164.044601 500.961761,164.117050 
	C502.206085,171.211151 499.637817,178.100586 503.312103,185.602676 
	C505.805267,190.693207 503.788208,197.992706 503.788208,204.652405 
	C490.485352,204.652405 477.089233,204.652405 463.007935,204.652405 
	C463.007935,198.808548 463.006195,192.724625 463.012604,186.640701 
	C463.012970,186.310959 462.952820,185.834152 463.137054,185.672913 
	C469.473846,180.126587 466.710785,172.712921 466.892059,166.073196 
	C467.255463,152.761551 467.080231,139.432053 466.918793,126.112457 
	C466.892731,123.963066 465.845032,121.809547 465.171082,119.689240 
	C464.512970,117.618622 463.229858,115.619209 463.099670,113.533684 
	C462.790100,108.576340 463.000000,103.586563 463.000000,98.254692 
	C464.619385,98.162720 466.051849,98.011978 467.484436,98.010590 
	C484.469421,97.994148 501.458954,97.767464 518.437439,98.099297 
	C526.775513,98.262260 535.223145,99.665428 540.895081,106.646156 
	C543.526917,109.885277 545.993042,114.135239 546.393372,118.140900 
	C547.440002,128.613525 549.362976,139.714722 539.605164,147.831116 
	C537.787598,149.342957 535.650085,150.470108 534.312988,151.346817 
	C536.700623,153.002075 540.534424,154.472809 542.367798,157.259598 
	C544.259033,160.134354 544.632996,164.258041 544.901917,167.892212 
	C545.331787,173.702393 544.317810,179.716324 548.639282,184.899078 
	C549.000000,191.354401 549.000000,197.708786 549.000000,204.531586 
M508.040863,140.973923 
	C513.006653,138.284210 514.027100,129.825195 511.591766,125.373833 
	C509.553650,121.648590 505.746185,119.882874 501.257385,121.421570 
	C501.257385,128.380234 501.257385,135.128769 501.257385,142.251495 
	C503.459747,141.787735 505.333771,141.393127 508.040863,140.973923 
z"/>
<path fill="#231F20" opacity="1.000000" stroke="none" 
	d="
M549.000000,220.625000 
	C542.879517,227.974030 536.563110,234.792145 530.792175,242.044312 
	C529.529846,243.630585 530.154175,246.761597 530.019470,249.187317 
	C529.920288,250.973618 530.000000,252.769852 530.000000,254.778015 
	C525.896057,254.778015 522.161621,254.778015 518.499023,254.778015 
	C518.296204,254.326004 518.010681,254.007477 518.063538,253.761688 
	C520.009827,244.706909 515.003052,238.658707 509.311798,232.707443 
	C505.543884,228.767395 502.273010,224.352036 498.136932,219.376312 
	C498.136932,222.758575 498.136932,225.019501 498.136932,227.684433 
	C492.865112,227.684433 487.798309,227.684433 482.313354,227.684433 
	C482.313354,236.804626 482.313354,245.541061 482.313354,254.637527 
	C478.174347,254.637527 474.439087,254.637527 470.283936,254.637527 
	C470.283936,246.169205 470.283936,237.430389 470.283936,228.270981 
	C465.150421,228.270981 460.414001,228.270981 455.338898,228.270981 
	C455.338898,224.795395 455.338898,221.725189 455.338898,218.000000 
	C457.890259,218.000000 460.651276,218.000000 463.412262,218.000000 
	C477.897278,218.000000 492.388184,218.230026 506.863708,217.859680 
	C511.200928,217.748734 513.629333,219.675049 515.944153,222.590103 
	C518.463745,225.763123 520.949646,228.962891 523.706360,232.477509 
	C526.377502,229.207733 529.146179,226.467484 531.126587,223.243073 
	C534.137512,218.340759 538.368958,217.291016 543.579529,217.970596 
	C545.052917,218.162781 546.572571,218.000000 548.535522,218.000000 
	C549.000000,218.750000 549.000000,219.500000 549.000000,220.625000 
z"/>
<path fill="#231F20" opacity="1.000000" stroke="none" 
	d="
M365.194031,120.330856 
	C364.596008,122.218422 364.044342,123.777451 364.038849,125.338402 
	C363.977325,142.826508 363.997650,160.314896 364.005371,177.803207 
	C364.005890,178.964462 363.628937,180.456116 364.195740,181.235428 
	C369.445312,188.453186 365.837158,196.634384 367.268341,204.642075 
	C354.171295,204.642075 341.438995,204.642075 327.997833,204.642075 
	C329.038239,197.237350 325.866180,189.454086 330.332306,181.913239 
	C331.597687,179.776718 330.938049,176.439621 330.977661,173.650528 
	C331.054138,168.260696 331.000000,162.869019 331.000000,157.478088 
	C330.579285,157.406067 330.158600,157.334030 329.737885,157.262009 
	C325.757965,173.056427 321.778015,188.850830 317.754700,204.817444 
	C314.121979,204.817444 310.485077,204.817444 306.376770,204.817444 
	C302.317291,189.610733 298.200073,174.187592 294.082825,158.764465 
	C293.455353,158.889389 292.827911,159.014313 292.200439,159.139236 
	C292.200439,166.322906 289.724854,174.887009 292.780487,180.366776 
	C297.367065,188.592056 294.674530,196.408905 296.299591,204.634415 
	C284.854279,204.634415 273.787018,204.634415 262.007874,204.634415 
	C262.007874,198.838531 260.143250,191.951538 262.356232,186.824585 
	C269.093536,171.215820 264.756805,155.211166 265.850281,139.465958 
	C266.371704,131.957474 266.194580,124.589752 262.579163,117.042831 
	C260.131287,111.933105 262.112030,104.701813 262.112030,98.212784 
	C276.332031,98.212784 290.268799,98.212784 304.501648,98.212784 
	C307.736206,110.927147 311.013733,123.810364 314.291229,136.693573 
	C314.609192,136.806305 314.927155,136.919052 315.245117,137.031799 
	C316.162781,134.438324 317.258911,131.892441 317.965668,129.242722 
	C320.372040,120.221283 322.811005,111.201668 324.870148,102.098259 
	C325.587555,98.926613 326.791931,97.872108 330.057434,97.923668 
	C342.185730,98.115173 354.318878,98.000008 366.985840,98.000008 
	C366.985840,104.695610 367.039124,111.128944 366.919861,117.559082 
	C366.904572,118.382317 365.991272,119.188904 365.194031,120.330856 
z"/>
<path fill="#231F20" opacity="1.000000" stroke="none" 
	d="
M404.754089,96.654465 
	C421.088013,94.670403 436.214783,97.327271 450.542328,104.777138 
	C453.835785,106.489639 455.215027,108.417336 455.088440,112.198517 
	C454.805603,120.645088 455.000000,129.107635 455.000000,137.779022 
	C443.885406,137.779022 433.152222,137.779022 421.999695,137.779022 
	C421.999695,133.989960 422.204071,130.353348 421.940186,126.751030 
	C421.693848,123.388504 420.820099,119.906456 416.445801,120.076027 
	C412.471710,120.230080 410.946991,122.821671 410.966034,126.734566 
	C411.046326,143.228455 410.977539,159.723022 411.018646,176.217194 
	C411.027039,179.582062 411.042603,183.024719 415.949280,183.025757 
	C420.615204,183.026749 421.752563,179.841156 421.931976,176.243439 
	C422.194946,170.970169 421.999634,165.674042 421.999634,160.199432 
	C433.036713,160.199432 443.652466,160.199432 455.000000,160.199432 
	C455.000000,166.649918 455.000000,173.231323 455.000000,179.812744 
	C455.000000,183.144928 454.664520,186.519577 455.079803,189.799179 
	C455.680237,194.541290 453.973663,197.759079 449.749603,199.660782 
	C430.762177,208.209061 411.411224,210.718887 391.752625,202.205338 
	C381.733795,197.866486 377.294708,189.278763 377.094147,178.820908 
	C376.752380,161.000290 377.052155,143.168198 376.985565,125.341293 
	C376.916412,106.826797 388.849670,98.341774 404.754089,96.654465 
z"/>
<path fill="#231F20" opacity="1.000000" stroke="none" 
	d="
M274.204895,244.514771 
	C275.134216,245.554810 275.856201,246.743576 276.612457,246.765778 
	C281.921143,246.921677 287.243591,246.977188 292.545349,246.723892 
	C293.765686,246.665604 294.922821,245.284027 296.265991,242.996033 
	C293.349304,242.330704 290.456390,241.261749 287.510742,241.088333 
	C282.204712,240.775940 276.866638,241.046188 271.542877,240.987640 
	C265.622406,240.922531 260.929321,237.306763 261.966522,231.455994 
	C262.195282,230.165451 261.926025,228.794861 262.013550,227.469543 
	C262.306122,223.039825 263.672852,219.253769 268.889526,219.012527 
	C278.600861,218.563446 288.359741,217.722366 298.029694,218.268478 
	C305.116028,218.668686 306.462433,221.816330 305.657623,230.936035 
	C301.225616,230.133408 296.206818,233.371384 292.488983,227.501572 
	C291.590790,226.083481 286.846039,227.088348 283.869385,227.006226 
	C282.539307,226.969513 281.188019,226.856354 279.880615,227.032333 
	C277.703400,227.325363 274.197968,225.668594 274.323730,229.624695 
	C274.350861,230.478912 278.163422,231.726212 280.306366,231.905014 
	C287.176239,232.478226 294.201233,231.955307 300.937531,233.147964 
	C307.423370,234.296265 308.777740,237.467545 307.922272,246.441803 
	C307.406952,251.847305 306.163483,254.857452 299.560852,254.967468 
	C289.764984,255.130722 279.916382,255.635590 270.182251,254.851929 
	C262.824127,254.259537 261.579803,251.529068 262.390259,242.556137 
	C266.272766,243.079712 270.143097,243.601654 274.204895,244.514771 
z"/>
<path fill="#231F20" opacity="1.000000" stroke="none" 
	d="
M423.047424,242.093658 
	C422.459625,245.507370 423.864777,246.110214 426.572266,246.058044 
	C434.865662,245.898224 443.164062,245.999924 451.728760,245.999924 
	C451.728760,249.004974 451.728760,251.737640 451.728760,254.738525 
	C438.327759,254.738525 424.932007,254.738525 411.267303,254.738525 
	C411.267303,242.655075 411.267303,230.595810 411.267303,218.267319 
	C424.344971,218.267319 437.404083,218.267319 450.732483,218.267319 
	C450.732483,221.344406 450.732483,224.411789 450.732483,227.896255 
	C441.640930,227.896255 432.563904,227.896255 423.251221,227.896255 
	C423.251221,229.372238 423.251221,230.442963 423.251221,231.911667 
	C431.982635,231.911667 440.736298,231.911667 449.741302,231.911667 
	C449.741302,235.029510 449.741302,237.761734 449.741302,241.625244 
	C440.832581,241.625244 431.959717,241.625244 423.047424,242.093658 
z"/>
<path fill="#231F20" opacity="1.000000" stroke="none" 
	d="
M312.260559,250.329910 
	C317.777130,240.060532 323.009583,230.073166 328.452606,220.201904 
	C329.046173,219.125381 330.775848,218.326736 332.109772,218.063080 
	C341.286621,216.249344 347.013123,219.309296 350.595764,228.672104 
	C354.005585,237.583313 359.607941,245.655563 364.738617,254.992523 
	C360.144318,254.992523 356.415985,255.144119 352.715607,254.889145 
	C351.754150,254.822876 350.388123,253.657684 350.055359,252.702118 
	C348.912415,249.420303 346.731140,248.704330 343.537354,248.938324 
	C339.897034,249.205032 336.198303,249.263138 332.568268,248.934158 
	C327.910492,248.512024 324.522522,249.507996 323.985626,254.863770 
	C319.407898,254.863770 315.095551,254.863770 310.409637,254.863770 
	C310.965118,253.424835 311.501495,252.035309 312.260559,250.329910 
M332.898895,237.581100 
	C333.178802,238.385010 333.416138,239.866165 333.745209,239.886810 
	C336.653381,240.069458 339.577881,239.992844 342.910339,239.992844 
	C341.016174,236.143661 339.306580,232.669571 337.346008,228.685425 
	C335.723083,231.727417 334.373383,234.257294 332.898895,237.581100 
z"/>
<path fill="#231F20" opacity="1.000000" stroke="none" 
	d="
M396.927307,234.000000 
	C399.397827,234.000000 401.377991,234.000000 403.678467,234.000000 
	C403.678467,236.908340 403.678467,239.641693 403.678467,242.789093 
	C395.770935,242.789093 387.698273,242.789093 379.214661,242.789093 
	C379.214661,246.912628 379.214661,250.650818 379.214661,254.692963 
	C375.078308,254.692963 371.343231,254.692963 367.300232,254.692963 
	C367.300232,242.736465 367.300232,230.679184 367.300232,218.309906 
	C379.917847,218.309906 392.638672,218.309906 405.680725,218.309906 
	C405.680725,221.239639 405.680725,224.307251 405.680725,227.798325 
	C397.095551,227.798325 388.359009,227.798325 379.245331,227.798325 
	C379.138458,229.923660 379.051117,231.660477 378.933441,234.000000 
	C384.901154,234.000000 390.669037,234.000000 396.927307,234.000000 
z"/>
<path fill="#E31936" opacity="1.000000" stroke="none" 
	d="
M113.507385,55.930836 
	C113.037560,53.665844 112.908463,51.332195 112.389977,48.915939 
	C113.590675,47.723820 115.180763,46.614304 116.770851,45.504787 
	C117.303131,45.948143 117.835411,46.391495 118.367691,46.834850 
	C116.861168,49.843960 115.354645,52.853069 113.507385,55.930836 
z"/>
<path fill="#E31936" opacity="1.000000" stroke="none" 
	d="
M48.138302,105.873367 
	C47.468449,106.025352 47.044552,106.002144 46.310642,105.906143 
	C46.636189,105.282242 47.271744,104.731140 47.907295,104.180038 
	C48.066280,104.686081 48.225266,105.192123 48.138302,105.873367 
z"/>
<path fill="#E31936" opacity="1.000000" stroke="none" 
	d="
M30.806295,112.029663 
	C30.767195,112.212769 30.421963,112.383293 29.982317,112.298172 
	C30.091990,112.034050 30.296076,112.025566 30.806295,112.029663 
z"/>
<path fill="#E31936" opacity="1.000000" stroke="none" 
	d="
M60.342396,69.891853 
	C60.266945,69.689430 60.367229,69.394218 60.725998,69.132828 
	C60.892673,69.424393 60.737225,69.635193 60.342396,69.891853 
z"/>
<path fill="#E31936" opacity="1.000000" stroke="none" 
	d="
M63.710457,68.669205 
	C63.848629,68.462288 64.338875,68.429855 64.831230,68.697075 
	C64.576408,68.945717 64.319466,68.894707 63.710457,68.669205 
z"/>
<path fill="#E31936" opacity="1.000000" stroke="none" 
	d="
M80.123672,65.972733 
	C80.224274,65.793198 80.561325,65.629257 80.866119,65.732742 
	C80.833870,66.000160 80.360107,65.988342 80.123672,65.972733 
z"/>
<path fill="#E31936" opacity="1.000000" stroke="none" 
	d="
M106.891853,48.657604 
	C106.689430,48.733055 106.394218,48.632771 106.132828,48.274002 
	C106.424393,48.107327 106.635193,48.262775 106.891853,48.657604 
z"/>
<path fill="#FFFFFF" opacity="1.000000" stroke="none" 
	d="
M507.624329,140.986221 
	C505.333771,141.393127 503.459747,141.787735 501.257385,142.251495 
	C501.257385,135.128769 501.257385,128.380234 501.257385,121.421570 
	C505.746185,119.882874 509.553650,121.648590 511.591766,125.373833 
	C514.027100,129.825195 513.006653,138.284210 507.624329,140.986221 
z"/>
<path fill="#FFFFFF" opacity="1.000000" stroke="none" 
	d="
M332.961304,237.184143 
	C334.373383,234.257294 335.723083,231.727417 337.346008,228.685425 
	C339.306580,232.669571 341.016174,236.143661 342.910339,239.992844 
	C339.577881,239.992844 336.653381,240.069458 333.745209,239.886810 
	C333.416138,239.866165 333.178802,238.385010 332.961304,237.184143 
z"/>
</svg>